<svg xmlns="http://www.w3.org/2000/svg" viewBox="0 0 64 64"><title>Artboard-13</title><g id="Pencil_Pulpen" data-name="Pencil Pulpen"><polygon points="54 59 17 22 22 17 59 54 59 59 54 59" style="fill:#f25757"/><path d="M4.1743,52.8257,54.55,2.45a4.95,4.95,0,1,1,7,7L11.1743,59.8257,1,63Z" style="fill:#fcd354"/><rect x="2.4645" y="2.4645" width="7.0711" height="7.0711" transform="translate(-2.4853 6) rotate(-45)" style="fill:#ba2020"/><polygon points="1 63 10.909 59.909 4.091 53.091 1 63" style="fill:#ffb125"/><path d="M50.9941,6l3.5528-3.5527A4.9539,4.9539,0,0,1,61.55,9.4561L58,13.0059Z" style="fill:#ffb125"/><rect x="7.636" y="6.2218" width="12.7279" height="15.5563" transform="translate(-5.799 14) rotate(-45)" style="fill:#d63434"/><path d="M11.707,60.707c10.6753-10.6754,39.6331-39.6333,50.55-50.55a5.95,5.95,0,1,0-8.414-8.414L3.293,52.293a1.2346,1.2346,0,0,0-.251.42l-3,10A1,1,0,0,0,1.2871,63.958l10-3A1.2382,1.2382,0,0,0,11.707,60.707ZM8.9141,56.5,54.5,10.9141,56.5857,13,11,58.5859ZM51,7.4138,53.0859,9.5,7.5,55.0859,5.4141,53Zm4.257-4.2571a4.044,4.044,0,0,1,5.586,0,3.9492,3.9492,0,0,1,0,5.586L58,11.5857,52.4138,6Zm-50.78,51.734,4.6326,4.6326-6.6176,1.985Z" style="fill:#231e23"/><path d="M4.5859,11,3.293,12.293a5.2485,5.2485,0,0,0,0,7.414l9,9a3.2469,3.2469,0,0,1,0,4.586,1,1,0,1,0,1.414,1.414,5.2485,5.2485,0,0,0,0-7.414l-9-9a3.2367,3.2367,0,0,1-.5839-3.7558l10.17,10.17a.9994.9994,0,0,0,1.414,0L17,23.4141l5.4629,5.4629a1,1,0,0,0,1.4141-1.4141L18.4141,22,22,18.4141l5.4629,5.4629a1,1,0,0,0,1.4141-1.4141L23.4141,17l1.2929-1.293a.9994.9994,0,0,0,0-1.414l-11-11a.9994.9994,0,0,0-1.414,0L11,4.5859,6.707.293a.9994.9994,0,0,0-1.414,0l-5,5a.9994.9994,0,0,0,0,1.414ZM13,5.4141,22.5859,15,15,22.5859,5.4141,13Zm-7-3L9.5859,6,6,9.5859,2.4141,6Z" style="fill:#231e23"/><path d="M60,58.5859V54a1,1,0,0,0-.293-.707l-18.17-18.17a1,1,0,0,0-1.4141,1.4141L58,54.4141V58H54.4141L36.5371,40.123a1,1,0,0,0-1.4141,1.4141l18.17,18.17A.9993.9993,0,0,0,54,60h4.5859l3.7071,3.707a1,1,0,0,0,1.414-1.414Z" style="fill:#231e23"/></g></svg>